<?xml version="1.0" encoding="utf-8"?>
<!-- Generator: Adobe Illustrator 16.0.0, SVG Export Plug-In . SVG Version: 6.00 Build 0)  -->
<!DOCTYPE svg PUBLIC "-//W3C//DTD SVG 1.1//EN" "http://www.w3.org/Graphics/SVG/1.1/DTD/svg11.dtd">
<svg version="1.1" id="Layer_1" xmlns="http://www.w3.org/2000/svg" xmlns:xlink="http://www.w3.org/1999/xlink" x="0px" y="0px"
	 width="100px" height="100px" viewBox="0 0 100 100" style="enable-background:new 0 0 100 100;" xml:space="preserve">
<g>
	<path d="M53.126,94.062c-24.586,0-44.591-20.006-44.591-44.596c0-25.184,17.336-43.464,41.222-43.464
		c5.513,0,7.86,0.649,8.663,2.396c0.957,2.079-0.891,4.234-3.686,7.495c-5.921,6.913-15.833,18.481-7.833,36.931
		c3.976,9.17,11.622,13.625,23.375,13.625c4.453,0,8.63-0.619,11.982-1.115c2.18-0.323,3.899-0.579,5.141-0.579
		c0.543,0,1.983,0,2.711,1.062c0.234,0.347,0.57,1.084,0.16,2.13C83.662,84.789,70.466,94.062,53.126,94.062z M49.758,9.08
		c-22.461,0-38.147,16.608-38.147,40.388c0,22.894,18.624,41.519,41.516,41.519c19.869,0,29.366-12.346,33.875-23.141
		c-1.034,0.053-2.559,0.276-4.29,0.532c-3.272,0.485-7.753,1.147-12.435,1.147l0,0c-12.926,0-21.739-5.207-26.194-15.476
		c-8.769-20.215,2.348-33.187,8.319-40.156c1.312-1.532,2.926-3.414,3.162-4.204C55.195,9.494,53.928,9.08,49.758,9.08z"/>
</g>
</svg>
